<mxfile host="app.diagrams.net" modified="2023-04-26T23:33:25.016Z" agent="Mozilla/5.0 (Windows NT 10.0; Win64; x64) AppleWebKit/537.36 (KHTML, like Gecko) Chrome/112.0.0.0 Safari/537.36" version="21.2.3" etag="3zjefO3pjoifIN6S1nU8" type="github">
  <diagram name="Page-1" id="6BSEzDwAR_9IASmVfd5w">
    <mxGraphModel>
      <root>
        <mxCell id="0" />
        <mxCell id="1" parent="0" />
      </root>
    </mxGraphModel>
  </diagram>
</mxfile>
